<svg width="179" height="59" viewBox="0 0 179 59" fill="none" xmlns="http://www.w3.org/2000/svg">
<path d="M17.8182 17.7273V41H11.5V17.7273H17.8182ZM27.1761 31.1818V41H20.9034V23.5455H26.858V26.8636H27.0398C27.4186 25.7576 28.0852 24.8902 29.0398 24.2614C30.0019 23.6326 31.1231 23.3182 32.4034 23.3182C33.6383 23.3182 34.7102 23.6023 35.6193 24.1705C36.536 24.7311 37.2443 25.5038 37.7443 26.4886C38.2519 27.4735 38.5019 28.5985 38.4943 29.8636V41H32.2216V31.1818C32.2292 30.3182 32.0095 29.6402 31.5625 29.1477C31.1231 28.6553 30.5095 28.4091 29.7216 28.4091C29.2064 28.4091 28.7557 28.5227 28.3693 28.75C27.9905 28.9697 27.6989 29.2879 27.4943 29.7045C27.2898 30.1136 27.1837 30.6061 27.1761 31.1818ZM57.5455 29.2273H51.7727C51.7424 28.8712 51.6174 28.5644 51.3977 28.3068C51.178 28.0492 50.8939 27.8523 50.5455 27.7159C50.2045 27.572 49.8258 27.5 49.4091 27.5C48.8712 27.5 48.4091 27.5985 48.0227 27.7955C47.6364 27.9924 47.447 28.2727 47.4545 28.6364C47.447 28.8939 47.5568 29.1326 47.7841 29.3523C48.0189 29.572 48.4697 29.7424 49.1364 29.8636L52.6818 30.5C54.4697 30.8258 55.7992 31.375 56.6705 32.1477C57.5492 32.9129 57.9924 33.9394 58 35.2273C57.9924 36.4697 57.6212 37.5492 56.8864 38.4659C56.1591 39.375 55.1629 40.0795 53.8977 40.5795C52.6402 41.072 51.2045 41.3182 49.5909 41.3182C46.9242 41.3182 44.8371 40.7727 43.3295 39.6818C41.8295 38.5909 40.9924 37.1515 40.8182 35.3636H47.0455C47.1288 35.9167 47.4015 36.3447 47.8636 36.6477C48.3333 36.9432 48.9242 37.0909 49.6364 37.0909C50.2121 37.0909 50.6856 36.9924 51.0568 36.7955C51.4356 36.5985 51.6288 36.3182 51.6364 35.9545C51.6288 35.6212 51.4621 35.3561 51.1364 35.1591C50.8182 34.9621 50.3182 34.803 49.6364 34.6818L46.5455 34.1364C44.7652 33.8258 43.4318 33.2348 42.5455 32.3636C41.6591 31.4924 41.2197 30.3712 41.2273 29C41.2197 27.7879 41.5379 26.7614 42.1818 25.9205C42.8333 25.072 43.7614 24.428 44.9659 23.9886C46.178 23.5417 47.6136 23.3182 49.2727 23.3182C51.7955 23.3182 53.7841 23.8409 55.2386 24.8864C56.7008 25.9318 57.4697 27.3788 57.5455 29.2273ZM70.8125 23.5455V28.0909H59.3125V23.5455H70.8125ZM61.5398 19.3636H67.8125V35.3864C67.8125 35.6288 67.8542 35.8333 67.9375 36C68.0208 36.1591 68.1496 36.2803 68.3239 36.3636C68.4981 36.4394 68.7216 36.4773 68.9943 36.4773C69.1837 36.4773 69.4034 36.4545 69.6534 36.4091C69.911 36.3636 70.1004 36.3258 70.2216 36.2955L71.1307 40.7045C70.8504 40.7879 70.4489 40.8902 69.9261 41.0114C69.411 41.1326 68.7973 41.2121 68.0852 41.25C66.6458 41.3258 65.4375 41.178 64.4602 40.8068C63.483 40.428 62.7481 39.8333 62.2557 39.0227C61.7633 38.2121 61.5246 37.197 61.5398 35.9773V19.3636ZM78.2358 41.2727C77.1222 41.2727 76.1373 41.0909 75.2812 40.7273C74.4328 40.3561 73.7661 39.7955 73.2812 39.0455C72.7964 38.2955 72.554 37.3409 72.554 36.1818C72.554 35.2273 72.7169 34.4129 73.0426 33.7386C73.3684 33.0568 73.8229 32.5 74.4062 32.0682C74.9896 31.6364 75.6676 31.3068 76.4403 31.0795C77.2206 30.8523 78.0616 30.7045 78.9631 30.6364C79.9403 30.5606 80.7244 30.4697 81.3153 30.3636C81.9138 30.25 82.3456 30.0947 82.6108 29.8977C82.8759 29.6932 83.0085 29.4242 83.0085 29.0909V29.0455C83.0085 28.5909 82.8343 28.2424 82.4858 28C82.1373 27.7576 81.6903 27.6364 81.1449 27.6364C80.5464 27.6364 80.0578 27.7689 79.679 28.0341C79.3078 28.2917 79.0843 28.6894 79.0085 29.2273H73.2358C73.3116 28.1667 73.6487 27.1894 74.2472 26.2955C74.8532 25.3939 75.7358 24.6742 76.8949 24.1364C78.054 23.5909 79.5009 23.3182 81.2358 23.3182C82.4858 23.3182 83.607 23.4659 84.5994 23.7614C85.5919 24.0492 86.4366 24.4545 87.1335 24.9773C87.8305 25.4924 88.3608 26.0985 88.7244 26.7955C89.0956 27.4848 89.2812 28.2348 89.2812 29.0455V41H83.4176V38.5455H83.2812C82.9328 39.197 82.5085 39.7235 82.0085 40.125C81.5161 40.5265 80.9517 40.8182 80.3153 41C79.6866 41.1818 78.9934 41.2727 78.2358 41.2727ZM80.2812 37.3182C80.7585 37.3182 81.2055 37.2197 81.6222 37.0227C82.0464 36.8258 82.3911 36.5417 82.6562 36.1705C82.9214 35.7992 83.054 35.3485 83.054 34.8182V33.3636C82.8873 33.4318 82.7093 33.4962 82.5199 33.5568C82.3381 33.6174 82.1411 33.6742 81.929 33.7273C81.7244 33.7803 81.5047 33.8295 81.2699 33.875C81.0426 33.9205 80.804 33.9621 80.554 34C80.0691 34.0758 79.6714 34.2008 79.3608 34.375C79.0578 34.5417 78.8305 34.75 78.679 35C78.535 35.2424 78.4631 35.5152 78.4631 35.8182C78.4631 36.303 78.6335 36.6742 78.9744 36.9318C79.3153 37.1894 79.7509 37.3182 80.2812 37.3182Z" fill="#3D3535"/>
<path d="M92.1875 41V17.7273H98.5057V35.9091H107.915V41H92.1875ZM118.969 41.3182C117.075 41.3182 115.454 40.9432 114.105 40.1932C112.757 39.4356 111.723 38.3826 111.003 37.0341C110.283 35.678 109.923 34.1061 109.923 32.3182C109.923 30.5303 110.283 28.9621 111.003 27.6136C111.723 26.2576 112.757 25.2045 114.105 24.4545C115.454 23.697 117.075 23.3182 118.969 23.3182C120.863 23.3182 122.484 23.697 123.832 24.4545C125.181 25.2045 126.215 26.2576 126.935 27.6136C127.654 28.9621 128.014 30.5303 128.014 32.3182C128.014 34.1061 127.654 35.678 126.935 37.0341C126.215 38.3826 125.181 39.4356 123.832 40.1932C122.484 40.9432 120.863 41.3182 118.969 41.3182ZM119.014 36.6818C119.545 36.6818 120.003 36.5038 120.389 36.1477C120.776 35.7917 121.075 35.2841 121.287 34.625C121.499 33.9659 121.605 33.1818 121.605 32.2727C121.605 31.3561 121.499 30.572 121.287 29.9205C121.075 29.2614 120.776 28.7538 120.389 28.3977C120.003 28.0417 119.545 27.8636 119.014 27.8636C118.454 27.8636 117.973 28.0417 117.571 28.3977C117.17 28.7538 116.863 29.2614 116.651 29.9205C116.438 30.572 116.332 31.3561 116.332 32.2727C116.332 33.1818 116.438 33.9659 116.651 34.625C116.863 35.2841 117.17 35.7917 117.571 36.1477C117.973 36.5038 118.454 36.6818 119.014 36.6818ZM135.423 41.2727C134.31 41.2727 133.325 41.0909 132.469 40.7273C131.62 40.3561 130.954 39.7955 130.469 39.0455C129.984 38.2955 129.741 37.3409 129.741 36.1818C129.741 35.2273 129.904 34.4129 130.23 33.7386C130.556 33.0568 131.01 32.5 131.594 32.0682C132.177 31.6364 132.855 31.3068 133.628 31.0795C134.408 30.8523 135.249 30.7045 136.151 30.6364C137.128 30.5606 137.912 30.4697 138.503 30.3636C139.101 30.25 139.533 30.0947 139.798 29.8977C140.063 29.6932 140.196 29.4242 140.196 29.0909V29.0455C140.196 28.5909 140.022 28.2424 139.673 28C139.325 27.7576 138.878 27.6364 138.332 27.6364C137.734 27.6364 137.245 27.7689 136.866 28.0341C136.495 28.2917 136.272 28.6894 136.196 29.2273H130.423C130.499 28.1667 130.836 27.1894 131.435 26.2955C132.041 25.3939 132.923 24.6742 134.082 24.1364C135.241 23.5909 136.688 23.3182 138.423 23.3182C139.673 23.3182 140.795 23.4659 141.787 23.7614C142.779 24.0492 143.624 24.4545 144.321 24.9773C145.018 25.4924 145.548 26.0985 145.912 26.7955C146.283 27.4848 146.469 28.2348 146.469 29.0455V41H140.605V38.5455H140.469C140.12 39.197 139.696 39.7235 139.196 40.125C138.704 40.5265 138.139 40.8182 137.503 41C136.874 41.1818 136.181 41.2727 135.423 41.2727ZM137.469 37.3182C137.946 37.3182 138.393 37.2197 138.81 37.0227C139.234 36.8258 139.579 36.5417 139.844 36.1705C140.109 35.7992 140.241 35.3485 140.241 34.8182V33.3636C140.075 33.4318 139.897 33.4962 139.707 33.5568C139.526 33.6174 139.329 33.6742 139.116 33.7273C138.912 33.7803 138.692 33.8295 138.457 33.875C138.23 33.9205 137.991 33.9621 137.741 34C137.257 34.0758 136.859 34.2008 136.548 34.375C136.245 34.5417 136.018 34.75 135.866 35C135.723 35.2424 135.651 35.5152 135.651 35.8182C135.651 36.303 135.821 36.6742 136.162 36.9318C136.503 37.1894 136.938 37.3182 137.469 37.3182ZM155.739 31.1818V41H149.466V23.5455H155.42V26.8636H155.602C155.981 25.7576 156.648 24.8902 157.602 24.2614C158.564 23.6326 159.686 23.3182 160.966 23.3182C162.201 23.3182 163.273 23.6023 164.182 24.1705C165.098 24.7311 165.807 25.5038 166.307 26.4886C166.814 27.4735 167.064 28.5985 167.057 29.8636V41H160.784V31.1818C160.792 30.3182 160.572 29.6402 160.125 29.1477C159.686 28.6553 159.072 28.4091 158.284 28.4091C157.769 28.4091 157.318 28.5227 156.932 28.75C156.553 28.9697 156.261 29.2879 156.057 29.7045C155.852 30.1136 155.746 30.6061 155.739 31.1818Z" fill="#123FDE"/>
</svg>
